<svg width="24" height="24" viewBox="0 0 24 24" fill="none" xmlns="http://www.w3.org/2000/svg">
<path d="M2 20V17.5996H4V22C2.89543 22 2 21.1046 2 20ZM6.40039 20V22H4V20H6.40039ZM14.4004 20V22H9.59961V20H14.4004ZM20 20V22H17.5996V20H20ZM22 20C22 21.1046 21.1046 22 20 22V17.5996H22V20ZM4 9.59961V14.4004H2V9.59961H4ZM22 9.59961V14.4004H20V9.59961H22ZM2 4C2 2.89543 2.89543 2 4 2H6.40039V4H4V6.40039H2V4ZM22 6.40039H20V4H17.5996V2H20C21.1046 2 22 2.89543 22 4V6.40039ZM14.4004 2V4H9.59961V2H14.4004Z" fill="#161D24"/>
</svg>
