<svg width="24" height="24" viewBox="0 0 24 24" fill="none" xmlns="http://www.w3.org/2000/svg">
<path d="M15 21V17C15 16.4477 15.4477 16 16 16C16.5523 16 17 16.4477 17 17V18H21C21.5523 18 22 18.4477 22 19C22 19.5523 21.5523 20 21 20H17V21C16.9998 21.5521 16.5522 22 16 22C15.4478 22 15.0002 21.5521 15 21ZM12 18C12.5523 18 13 18.4477 13 19C13 19.5523 12.5523 20 12 20H3C2.44772 20 2 19.5523 2 19C2 18.4477 2.44772 18 3 18H12ZM7 14V13H3C2.44772 13 2 12.5523 2 12C2 11.4477 2.44772 11 3 11H7V10C7 9.44772 7.44772 9 8 9C8.55228 9 9 9.44772 9 10V14C8.99978 14.5521 8.55215 15 8 15C7.44785 15 7.00022 14.5521 7 14ZM21 11C21.5523 11 22 11.4477 22 12C22 12.5523 21.5523 13 21 13H12C11.4477 13 11 12.5523 11 12C11 11.4477 11.4477 11 12 11H21ZM13 7V3C13 2.44772 13.4477 2 14 2C14.5523 2 15 2.44772 15 3V4H21C21.5523 4 22 4.44772 22 5C22 5.55228 21.5523 6 21 6H15V7C14.9998 7.5521 14.5522 8 14 8C13.4478 8 13.0002 7.5521 13 7ZM10 4C10.5523 4 11 4.44772 11 5C11 5.55228 10.5523 6 10 6H3C2.44772 6 2 5.55228 2 5C2 4.44772 2.44772 4 3 4H10Z" fill="#161D24"/>
</svg>
